<?xml version="1.0" encoding="UTF-8"?>
<svg xmlns="http://www.w3.org/2000/svg" xmlns:xlink="http://www.w3.org/1999/xlink" viewBox="0 0 299.78 80.12">
  <defs>
    <style>
      .cls-1 {
        fill: #1e2547;
      }

      .cls-2 {
        stroke: #1e2547;
        stroke-width: 3.56px;
      }

      .cls-2, .cls-3, .cls-4, .cls-5, .cls-6 {
        fill: none;
      }

      .cls-7 {
        fill: #29235c;
      }

      .cls-8 {
        fill: #f5ba0d;
      }

      .cls-3 {
        stroke: #f5ba0d;
        stroke-width: 3.56px;
      }

      .cls-5 {
        clip-path: url(#clippath);
      }

      .cls-6 {
        clip-path: url(#clippath-1);
      }
    </style>
    <clipPath id="clippath">
      <rect class="cls-4" x="7.32" y="16.23" width="65.37" height="47.77" transform="translate(-16.65 40.03) rotate(-45)"/>
    </clipPath>
    <clipPath id="clippath-1">
      <rect class="cls-4" x="16.12" y="7.32" width="47.77" height="65.37" transform="translate(-16.57 40) rotate(-45)"/>
    </clipPath>
  </defs>
  <g id="_Слой_1" data-name="Слой 1">
    <g>
      <path class="cls-8" d="m41.78,38.34c.98.98.98,2.57,0,3.56s-2.57.98-3.56,0-.98-2.57,0-3.56,2.57-.98,3.56,0h0Z"/>
      <g class="cls-5">
        <path class="cls-3" d="m40,50.17c-5.56,0-10.06-4.5-10.06-10.06m10.06-10.06c5.56,0,10.06,4.5,10.06,10.06m-10.05,20.11c-11.11,0-20.11-9-20.11-20.11m20.11-20.11c11.11,0,20.11,9,20.11,20.11m-20.11,30.17c-16.66,0-30.17-13.5-30.17-30.17m30.17-30.16c16.66,0,30.17,13.5,30.17,30.17"/>
      </g>
    </g>
  </g>
  <g id="_Слой_3" data-name="Слой 3">
    <g id="_3" data-name="3">
      <path class="cls-7" d="m135.33,72.01c1.77-8.2,3.66-16.38,5.86-24.48-.44.53-.88,1.07-1.32,1.6-1.79,2.96-3.7,5.88-5.67,8.75h-14.97c-.82-3.81-1.41-7.62-1.89-11.49-1.79,8.58-3.82,17.13-5.98,25.62h-20.17c1.77-9.44,4.22-18.75,6.27-28.11h-3.8l8.09-35.82h22.85c.22.85.14,1.06.42,1.86,1.35,7.04,2.94,14.05,4.12,21.15.35-.35,1.11-1.18,1.45-1.7,4.65-7.17,9.27-14.28,14.09-21.31h22.62c-2.75,12.02-5.42,24.1-8.23,36.12h4.08c-2.32,9.26-4.39,18.49-6.52,27.81h-21.3Z"/>
      <path class="cls-7" d="m180.65,72.53c-5.57-.9-9.62-3.15-14.72-4.86,1.09-5.95,2.71-11.78,3.88-17.72h6.41c.73,2.61,1.34,3.37,3.23,5.32.54.43,3.49,2.22,4.19,2.45.75.26,4.07,1.06,4.78,1.15,3.09.39,4.3-.04,7.18-.46,3.03-1.26,4.3-2.58,4.85-5.83-.85-.95-1.88-1.91-3.06-2.4-4.9-1.97-10.04-3.21-14.95-5.06-1.37-.71-2.66-1.46-3.87-2.42h-4.01c-.63-.56-1.9-2.38-2.42-3.14-1.56-3.57-1.79-7.26-1.06-11.08.25-1.36,1.2-4.12,1.79-5.4,2.84-6.15,7.05-10.03,13.16-12.88,9.07-4.24,22.83-4.31,32.3-1.42,2.42.74,4.74,1.79,7.09,2.79-1.13,5.84-2.63,11.6-4.01,17.37h-6.35c-.27-2.12-1.21-2.84-2.71-4.22-2.71-1.68-4.36-1.87-7.18-2.84-3.55-.22-4.24-.39-7.78.13-1.83.97-3.65,2.17-3.92,4.39v.6c.26.45.53.87.83,1.3,3.97,2.5,8.82,3.39,13.26,4.66,1.81.52,4.31,1.76,5.98,2.68,2.95,1.61,4.44,4.35,5.63,7.36h3.78c.54,2.44.58,4.59.16,7.03-.38,2.18-1.31,4.31-2.33,6.28-1.97,3.66-3.91,5.47-6.64,8.54-2.98,2.25-5.03,3.52-8.37,5.27-4.08,1.34-7.24,1.95-11.37,2.97-4.61.19-9.2.23-13.75-.56Z"/>
      <path class="cls-7" d="m288.31,72.01h-20.58c1.63-7.44,3.49-14.81,5.34-22.15l-.37-1.28c-1.93,3.15-3.87,6.24-5.93,9.3h-15.15c-.64-3.6-1.32-6.78-2.22-10.32-1.7,8.19-3.85,16.29-5.66,24.45h-20.31l6.55-28.12h-3.99s8.29-35.81,8.29-35.81h22.6c1.67,7.78,3.31,15.54,4.64,23.4l15.55-23.4h22.71l-8.43,35.94,1.14.18h2.85l-6.38,27.81h-.65Z"/>
    </g>
  </g>
  <g id="_Слой_2" data-name="Слой 2">
    <g id="_2" data-name="2">
      <path class="cls-1" d="m41.78,41.78c-.98.98-2.57.98-3.56,0s-.98-2.57,0-3.56,2.57-.98,3.56,0,.98,2.57,0,3.56h0Z"/>
      <g class="cls-6">
        <path class="cls-2" d="m29.94,40c0-5.56,4.5-10.06,10.06-10.06m10.06,10.06c0,5.56-4.5,10.06-10.06,10.06m-20.11-10.05c0-11.11,9-20.11,20.11-20.11m20.11,20.11c0,11.11-9,20.11-20.11,20.11m-30.17-20.11c0-16.66,13.5-30.17,30.17-30.17m30.16,30.17c0,16.66-13.5,30.17-30.17,30.17"/>
      </g>
    </g>
  </g>
</svg>